<svg aria-hidden="true" xmlns="http://www.w3.org/2000/svg" xmlns:xlink="http://www.w3.org/1999/xlink"><symbol fill="none" viewBox="0 0 21 14" id="arrow" xmlns="http://www.w3.org/2000/svg"><path d="M.758 7.49V5.727h16.68l-4.48-4.592L14.05.042l6.407 6.567-6.407 6.566-1.093-1.092 4.48-4.592H.759Z" fill="currentColor"/></symbol><symbol fill="none" viewBox="0 0 8 14" id="arrow-sl" xmlns="http://www.w3.org/2000/svg"><path d="M5.5 6.459 0 1.092 1.093 0 7.5 6.567l-6.407 6.566L0 12.041 5.5 6.46Z" fill="currentColor"/></symbol><symbol fill="none" viewBox="0 0 17 12" id="burger" xmlns="http://www.w3.org/2000/svg"><path d="M8 0h9v2H8V0ZM0 5h17v2H0V5ZM0 10h17v2H0v-2Z" fill="currentColor"/></symbol><symbol fill="none" viewBox="0 0 16 21" id="doc" xmlns="http://www.w3.org/2000/svg"><path d="M2 .5c-1.094 0-2 .906-2 2v16c0 1.094.906 2 2 2h12c1.094 0 2-.906 2-2v-12l-6-6H2Zm0 2h7v5h5v11H2v-16Z" fill="currentColor"/></symbol><symbol fill="none" viewBox="0 0 17 17" id="dogovor" xmlns="http://www.w3.org/2000/svg"><path fill-rule="evenodd" clip-rule="evenodd" d="M14.86 1.655C14.084 1.5 13.46 1.5 12.774 1.5c-2.631 0-4.237 1.375-5.5 3.317a.952.952 0 0 1-.797.433H3.536a.897.897 0 0 0-.356.131.774.774 0 0 0-.269.256l-1.387 2.8H4.24a.85.85 0 0 1 .614 1.438l-.5.523-.018.017c-.008.006-.03.037-.032.095a.19.19 0 0 0 .055.14l1.496 1.493c.013.013.06.043.13.045a.166.166 0 0 0 .13-.045l.474-.474c.536-.535 1.45-.155 1.45.601v2.721l2.835-1.401a.732.732 0 0 0 .248-.26.706.706 0 0 0 .11-.334V10.03c0-.328.17-.628.439-.8 1.964-1.259 3.315-2.86 3.315-5.492v-.03c.027-.66.027-1.28-.126-2.053ZM12.79 0c.732 0 1.532 0 2.55.222l.039.009.038.012c.4.134.722.456.856.855l.012.038.009.04c.223 1.02.223 1.821.193 2.577-.005 3.181-1.651 5.161-3.754 6.574v2.67c0 .395-.132.783-.322 1.101a2.21 2.21 0 0 1-.838.82l-.01.005-2.96 1.464-.049.016a1.77 1.77 0 0 1-.53.097c-.832 0-1.426-.626-1.481-1.4l-.002-.026V13.6c-.62.21-1.318.031-1.745-.396L3.299 11.71a1.697 1.697 0 0 1-.394-1.773H1.454A1.426 1.426 0 0 1 0 8.485c0-.211.061-.421.097-.53l.017-.05 1.465-2.956.005-.01c.194-.364.5-.644.813-.836a2.359 2.359 0 0 1 1.063-.35l.023-.002h2.7C7.595 1.676 9.579 0 12.774 0h.015Z" fill="currentColor"/><path fill-rule="evenodd" clip-rule="evenodd" d="M11.75 5.75a1 1 0 1 0 0-2 1 1 0 0 0 0 2Zm0 1a2 2 0 1 0 0-4 2 2 0 0 0 0 4Z" fill="currentColor"/></symbol><symbol fill="none" viewBox="0 0 21 17" id="e-comm" xmlns="http://www.w3.org/2000/svg"><path fill-rule="evenodd" clip-rule="evenodd" d="M.25 1.75C.25.783 1.034 0 2 0h17c.966 0 1.75.783 1.75 1.75v9.539a1.75 1.75 0 0 1-1.75 1.75h-7.75V15h4.679a.75.75 0 0 1 0 1.5H5.07a.75.75 0 0 1 0-1.5H9.75v-1.961H2a1.75 1.75 0 0 1-1.75-1.75V1.75ZM2 1.5a.25.25 0 0 0-.25.25v9.539c0 .138.112.25.25.25h17a.25.25 0 0 0 .25-.25V1.75A.25.25 0 0 0 19 1.5H2Z" fill="currentColor"/></symbol><symbol fill="none" viewBox="0 0 25 17" id="patent" xmlns="http://www.w3.org/2000/svg"><path fill-rule="evenodd" clip-rule="evenodd" d="M3.25 2c0-.967.784-1.75 1.75-1.75h17.5c.966 0 1.75.783 1.75 1.75v13a1.75 1.75 0 0 1-1.75 1.75H5A1.75 1.75 0 0 1 3.25 15V2ZM5 1.75a.25.25 0 0 0-.25.25v13c0 .138.112.25.25.25h17.5a.25.25 0 0 0 .25-.25V2a.25.25 0 0 0-.25-.25H5Z" fill="currentColor"/><path fill-rule="evenodd" clip-rule="evenodd" d="M2 3.25a.25.25 0 0 0-.25.25V15c0 .138.112.25.25.25h5a.75.75 0 0 1 0 1.5H2A1.75 1.75 0 0 1 .25 15V3.5c0-.967.784-1.75 1.75-1.75h2a.75.75 0 0 1 0 1.5H2ZM7.75 6.25v1.5h4.5v-1.5h-4.5ZM6.25 6c0-.69.56-1.25 1.25-1.25h5c.69 0 1.25.56 1.25 1.25v2c0 .69-.56 1.25-1.25 1.25h-5c-.69 0-1.25-.56-1.25-1.25V6ZM16 5.5a.75.75 0 0 1 .75-.75h3.75a.75.75 0 0 1 0 1.5h-3.75A.75.75 0 0 1 16 5.5ZM16 11.5a.75.75 0 0 1 .75-.75h3.75a.75.75 0 0 1 0 1.5h-3.75a.75.75 0 0 1-.75-.75Z" fill="currentColor"/><path fill-rule="evenodd" clip-rule="evenodd" d="M6.25 11.5a.75.75 0 0 1 .75-.75h6a.75.75 0 0 1 0 1.5H7a.75.75 0 0 1-.75-.75ZM16 8.5a.75.75 0 0 1 .75-.75h3.75a.75.75 0 0 1 0 1.5h-3.75A.75.75 0 0 1 16 8.5Z" fill="currentColor"/></symbol><symbol fill="none" viewBox="0 0 13 17" id="play" xmlns="http://www.w3.org/2000/svg"><path d="M0 1.849a1 1 0 0 1 1.547-.837L11.72 7.663a1 1 0 0 1 0 1.674L1.547 15.988A1 1 0 0 1 0 15.151V1.85Z" fill="currentColor"/></symbol><symbol fill="none" viewBox="0 0 34 32" id="quote" xmlns="http://www.w3.org/2000/svg"><path d="m33.856.316-.768 5.952c-1.877-.128-3.328.213-4.352 1.024-1.024.81-1.707 1.941-2.048 3.392-.341 1.45-.405 3.093-.192 4.928h7.36v15.424H19.712V14.332c0-5.035 1.195-8.832 3.584-11.392C25.728.337 29.248-.537 33.856.316Zm-19.712 0-.768 5.952c-1.877-.128-3.328.213-4.352 1.024-1.024.81-1.707 1.941-2.048 3.392-.341 1.45-.405 3.093-.192 4.928h7.36v15.424H0V14.332C0 9.297 1.195 5.5 3.584 2.94 6.016.337 9.536-.537 14.144.316Z" fill="currentColor"/></symbol><symbol fill="none" viewBox="0 0 19 17" id="sudi" xmlns="http://www.w3.org/2000/svg"><path fill-rule="evenodd" clip-rule="evenodd" d="M3.173.75a.75.75 0 0 1 .75-.75h11.77a.75.75 0 0 1 0 1.5h-5.136v13.539H17a.75.75 0 0 1 0 1.5H2.615a.75.75 0 0 1 0-1.5h6.443V1.5H3.923a.75.75 0 0 1-.75-.75Z" fill="currentColor"/><path fill-rule="evenodd" clip-rule="evenodd" d="M4.578 2.927 2.204 9.031a1.358 1.358 0 0 0 .476 1.598c1.135.81 2.66.81 3.795 0A1.359 1.359 0 0 0 6.95 9.03L4.578 2.927Zm.932-1.742c-.331-.85-1.534-.85-1.864 0L.806 8.487a2.858 2.858 0 0 0 1.003 3.362 4.764 4.764 0 0 0 5.538 0 2.858 2.858 0 0 0 1.002-3.362L5.51 1.185Z" fill="currentColor"/><path fill-rule="evenodd" clip-rule="evenodd" d="M1.865 9.25a.75.75 0 0 1 .75-.75h3.923a.75.75 0 1 1 0 1.5H2.615a.75.75 0 0 1-.75-.75ZM15.039 2.927l-2.374 6.104a1.359 1.359 0 0 0 .476 1.598c1.135.81 2.66.81 3.795 0a1.358 1.358 0 0 0 .476-1.598L15.04 2.927Zm.932-1.742c-.331-.85-1.534-.85-1.864 0l-2.84 7.302a2.858 2.858 0 0 0 1.003 3.362 4.764 4.764 0 0 0 5.538 0 2.858 2.858 0 0 0 1.002-3.362l-2.84-7.302Z" fill="currentColor"/><path fill-rule="evenodd" clip-rule="evenodd" d="M12.326 9.25a.75.75 0 0 1 .75-.75H17a.75.75 0 0 1 0 1.5h-3.923a.75.75 0 0 1-.75-.75Z" fill="currentColor"/></symbol><symbol fill="none" viewBox="0 0 17 15" id="tg" xmlns="http://www.w3.org/2000/svg"><path d="M16.522.599c.259.108.383.357.383.767 0 .375-2.48 12.164-2.613 12.422-.188.364-.59.502-1.003.345-.137-.052-1.494-1.03-3.476-2.505l-.492-.366-1.067 1.019c-.777.742-1.119 1.03-1.258 1.06-.105.024-.204.03-.22.013-.017-.016.027-.87.096-1.899l.126-1.87.412-.38c.226-.21 1.815-1.652 3.53-3.203 1.716-1.551 3.12-2.86 3.12-2.906 0-.06-.063-.084-.208-.08-.168.005-1.039.53-4.554 2.745C6.907 7.267 4.92 8.5 4.884 8.5 4.722 8.5 1.022 7.31.847 7.2c-.375-.231-.295-.583.194-.856.128-.072 1.063-.45 2.078-.842l4.252-1.64 5.251-2.029C16.053.508 16.021.52 16.188.517c.074 0 .224.036.334.082Z" fill="currentColor"/></symbol><symbol fill="none" viewBox="0 0 13 17" id="tov_znaki" xmlns="http://www.w3.org/2000/svg"><path fill-rule="evenodd" clip-rule="evenodd" d="M2 1.5a.25.25 0 0 0-.25.25v13c0 .138.112.25.25.25h9a.25.25 0 0 0 .25-.25V5.164a.25.25 0 0 0-.073-.177L7.763 1.573a.25.25 0 0 0-.177-.073H2Zm-1.75.25C.25.783 1.034 0 2 0h5.586c.464 0 .909.184 1.237.513l3.414 3.414c.329.328.513.773.513 1.237v9.586A1.75 1.75 0 0 1 11 16.5H2a1.75 1.75 0 0 1-1.75-1.75v-13Z" fill="currentColor"/><path fill-rule="evenodd" clip-rule="evenodd" d="M2.75 8.75A.75.75 0 0 1 3.5 8h6a.75.75 0 0 1 0 1.5h-6a.75.75 0 0 1-.75-.75ZM2.75 11.75A.75.75 0 0 1 3.5 11h6a.75.75 0 0 1 0 1.5h-6a.75.75 0 0 1-.75-.75ZM8 .5a.75.75 0 0 1 .75.75v2.5c0 .138.112.25.25.25h2.5a.75.75 0 0 1 0 1.5H9a1.75 1.75 0 0 1-1.75-1.75v-2.5A.75.75 0 0 1 8 .5Z" fill="currentColor"/></symbol><symbol fill="none" viewBox="0 0 22 13" id="vk" xmlns="http://www.w3.org/2000/svg"><path d="M12.936 5.977c-.39-.147-.39-.708-.415-1.099-.098-1.391.39-3.515-.196-4.419-.414-.537-2.417-.488-3.637-.414-.342.049-.757.122-1.05.268-.293.147-.586.391-.586.61 0 .318.733.27 1 .684.294.44.294 1.392.294 2.173 0 .903-.147 2.1-.513 2.148-.561.024-.879-.537-1.172-.952A16.29 16.29 0 0 1 5.05 2.192C4.83 1.68 4.708 1.118 4.39.9 3.902.556 3.023.532 2.17.556 1.386.581.263.483.043.947c-.17.512.196 1 .39 1.416C1.437 4.536 2.51 6.441 3.83 8.247c1.22 1.684 2.368 3.027 4.614 3.735.635.195 3.418.757 3.98 0 .195-.293.146-.952.244-1.44.098-.489.22-.977.684-1.001.39-.024.61.317.854.561.269.27.489.489.684.733.464.464.952 1.099 1.538 1.343.806.342 2.05.245 3.223.195.952-.024 1.636-.219 1.71-.78.048-.44-.44-1.075-.734-1.441-.733-.903-1.074-1.172-1.904-2.003-.367-.366-.83-.757-.83-1.196-.025-.269.195-.512.39-.781.855-1.27 1.71-2.173 2.49-3.491.22-.391.733-1.294.538-1.734-.22-.488-1.44-.342-2.198-.342-.976 0-2.246-.074-2.49.122-.464.317-.66.83-.88 1.318-.488 1.124-1.147 2.27-1.83 3.125-.245.293-.708.904-.977.806Z" fill="currentColor"/></symbol><symbol fill="none" viewBox="0 0 23 16" id="youtube" xmlns="http://www.w3.org/2000/svg"><path d="M22.2 2.498A2.832 2.832 0 0 0 20.188.472a68.626 68.626 0 0 0-8.854-.467A68.625 68.625 0 0 0 2.48.472 2.833 2.833 0 0 0 .468 2.498a30.132 30.132 0 0 0-.467 5.469 30.346 30.346 0 0 0 .467 5.496 2.833 2.833 0 0 0 2.012 1.984c2.938.346 5.896.502 8.854.467a68.612 68.612 0 0 0 8.854-.467 2.832 2.832 0 0 0 2.012-1.984c.322-1.814.479-3.654.467-5.496a30.122 30.122 0 0 0-.467-5.469ZM9.01 11.352V4.61l5.936 3.358-5.935 3.371v.014Z" fill="currentColor"/></symbol><symbol fill="none" viewBox="0 0 17 24" id="zachita" xmlns="http://www.w3.org/2000/svg"><path fill-rule="evenodd" clip-rule="evenodd" d="M15 3c.966 0 1.75.784 1.75 1.75v17.5A1.75 1.75 0 0 1 15 24H2a1.75 1.75 0 0 1-1.75-1.75V4.75C.25 3.784 1.034 3 2 3h13Zm.25 1.75A.25.25 0 0 0 15 4.5H2a.25.25 0 0 0-.25.25v17.5c0 .138.112.25.25.25h13a.25.25 0 0 0 .25-.25V4.75Z" fill="currentColor"/><path fill-rule="evenodd" clip-rule="evenodd" d="M13.75 1.75a.25.25 0 0 0-.25-.25H2a.25.25 0 0 0-.25.25v5a.75.75 0 0 1-1.5 0v-5C.25.783 1.034 0 2 0h11.5c.966 0 1.75.783 1.75 1.75v2a.75.75 0 0 1-1.5 0v-2ZM9.25 13.5a.75.75 0 0 1-.75.75H4.75a.75.75 0 0 1 0-1.5H8.5a.75.75 0 0 1 .75.75Z" fill="currentColor"/><path fill-rule="evenodd" clip-rule="evenodd" d="M9.25 7.5a.75.75 0 0 1-.75.75H4.75a.75.75 0 0 1 0-1.5H8.5a.75.75 0 0 1 .75.75ZM9.25 10.5a.75.75 0 0 1-.75.75H4.75a.75.75 0 0 1 0-1.5H8.5a.75.75 0 0 1 .75.75ZM13.25 13.5a.75.75 0 0 1-.75.75H8.75a.75.75 0 0 1 0-1.5h3.75a.75.75 0 0 1 .75.75Z" fill="currentColor"/><path fill-rule="evenodd" clip-rule="evenodd" d="M13.25 7.5a.75.75 0 0 1-.75.75H8.75a.75.75 0 0 1 0-1.5h3.75a.75.75 0 0 1 .75.75ZM13.25 10.5a.75.75 0 0 1-.75.75H8.75a.75.75 0 0 1 0-1.5h3.75a.75.75 0 0 1 .75.75ZM9.25 19.5a.75.75 0 0 1-.75.75H4.75a.75.75 0 0 1 0-1.5H8.5a.75.75 0 0 1 .75.75ZM9.25 13.5a.75.75 0 0 1-.75.75H4.75a.75.75 0 0 1 0-1.5H8.5a.75.75 0 0 1 .75.75ZM9.25 16.5a.75.75 0 0 1-.75.75H4.75a.75.75 0 0 1 0-1.5H8.5a.75.75 0 0 1 .75.75Z" fill="currentColor"/><path fill-rule="evenodd" clip-rule="evenodd" d="M13.25 19.5a.75.75 0 0 1-.75.75H8.75a.75.75 0 0 1 0-1.5h3.75a.75.75 0 0 1 .75.75ZM13.25 13.5a.75.75 0 0 1-.75.75H8.75a.75.75 0 0 1 0-1.5h3.75a.75.75 0 0 1 .75.75ZM13.25 16.5a.75.75 0 0 1-.75.75H8.75a.75.75 0 0 1 0-1.5h3.75a.75.75 0 0 1 .75.75Z" fill="currentColor"/></symbol></svg>