<svg width="130" height="36" viewBox="0 0 130 36" fill="none" xmlns="http://www.w3.org/2000/svg">
<g clip-path="url(#clip0_3372_6079)">
<mask id="mask0_3372_6079" style="mask-type:luminance" maskUnits="userSpaceOnUse" x="0" y="0" width="130" height="36">
<path d="M130 0H0V36H130V0Z" fill="white"/>
</mask>
<g mask="url(#mask0_3372_6079)">
<path d="M26.9144 0.635943C25.2508 1.19642 24.3475 2.43594 24.1381 4.44073C24.0831 5.03355 23.9398 5.69103 23.8076 5.97127C23.4771 6.71499 22.5847 7.57726 21.7805 7.93295L21.3177 8.14476C21.1726 8.21113 21.0145 8.24578 20.8543 8.24627L10.5542 8.27786L0 8.29942V12.3952H10.2788C21.5932 12.3952 21.3068 12.406 22.3864 11.7377C23.5212 11.0264 24.1051 10.0132 24.2593 8.49343C24.4025 7.10301 24.689 6.43475 25.4932 5.64792C25.967 5.18445 26.3525 4.91499 26.8263 4.73175C27.4763 4.48385 27.5534 4.47307 31.9271 4.44073L36.3559 4.4084V0.431152H31.9271C27.95 0.441931 27.4322 0.463488 26.9144 0.635943Z" fill="#173867"/>
<path d="M26.9144 0.635943C25.2508 1.19642 24.3475 2.43594 24.1381 4.44073C24.0831 5.03355 23.9398 5.69103 23.8076 5.97127C23.4771 6.71499 22.5847 7.57726 21.7805 7.93295L21.3177 8.14476C21.1726 8.21113 21.0145 8.24578 20.8543 8.24627L10.5542 8.27786L0 8.29942V12.3952H10.2788C21.5932 12.3952 21.3068 12.406 22.3864 11.7377C23.5212 11.0264 24.1051 10.0132 24.2593 8.49343C24.4025 7.10301 24.689 6.43475 25.4932 5.64792C25.967 5.18445 26.3525 4.91499 26.8263 4.73175C27.4763 4.48385 27.5534 4.47307 31.9271 4.44073L36.3559 4.4084V0.431152H31.9271C27.95 0.441931 27.4322 0.463488 26.9144 0.635943Z" fill="#173867"/>
<path d="M27.289 8.418C26.2203 8.66591 25.1076 9.5174 24.6339 10.4551C24.3144 11.0587 24.2373 11.3605 24.1271 12.4922C23.9619 14.0336 23.1797 15.1653 21.8356 15.812L21.4358 16.0042C21.2856 16.0763 21.1207 16.1141 20.9535 16.1146L10.6093 16.1461L0 16.1677V20.2635L10.6093 20.2419L20.7157 20.2111C21.0397 20.2101 21.3594 20.1393 21.6522 20.0036L21.8356 19.9186C23.2898 19.2503 24.072 18.1294 24.2483 16.4156C24.3695 15.2731 24.5678 14.691 25.0856 13.9689C25.5153 13.3761 26.1653 12.9018 26.9475 12.6108C27.5203 12.406 27.7958 12.3952 31.9492 12.3952H36.3559V8.29944L32.0373 8.31022C29.6576 8.321 27.5203 8.36411 27.289 8.418Z" fill="#173867"/>
<path d="M27.289 8.418C26.2203 8.66591 25.1076 9.5174 24.6339 10.4551C24.3144 11.0587 24.2373 11.3605 24.1271 12.4922C23.9619 14.0336 23.1797 15.1653 21.8356 15.812L21.4358 16.0042C21.2856 16.0763 21.1207 16.1141 20.9535 16.1146L10.6093 16.1461L0 16.1677V20.2635L10.6093 20.2419L20.7157 20.2111C21.0397 20.2101 21.3594 20.1393 21.6522 20.0036L21.8356 19.9186C23.2898 19.2503 24.072 18.1294 24.2483 16.4156C24.3695 15.2731 24.5678 14.691 25.0856 13.9689C25.5153 13.3761 26.1653 12.9018 26.9475 12.6108C27.5203 12.406 27.7958 12.3952 31.9492 12.3952H36.3559V8.29944L32.0373 8.31022C29.6576 8.321 27.5203 8.36411 27.289 8.418Z" fill="#173867"/>
<path d="M27.4322 16.2863C26.1542 16.5342 24.9093 17.5581 24.4576 18.7222C24.3364 19.0563 24.1822 19.7569 24.1381 20.2851C23.9729 21.9881 23.2347 23.0444 21.7144 23.7557L21.2082 23.9883C21.0626 24.0553 20.904 24.0901 20.7433 24.0906L0 24.1546V28.1318L10.6644 28.1102L20.8097 28.0794C21.1441 28.0784 21.4738 28.003 21.7739 27.8589L21.9237 27.7869C22.2653 27.6252 22.772 27.2587 23.0585 26.9785C23.8186 26.2348 24.1161 25.5665 24.2483 24.2947C24.4136 22.7318 24.8983 21.7833 25.9119 21.0611C26.9695 20.2959 27.2449 20.2635 32.0703 20.2635H36.3559V16.1677L32.1475 16.1785C29.8229 16.1893 27.7076 16.2324 27.4322 16.2863Z" fill="#173867"/>
<path d="M27.4322 16.2863C26.1542 16.5342 24.9093 17.5581 24.4576 18.7222C24.3364 19.0563 24.1822 19.7569 24.1381 20.2851C23.9729 21.9881 23.2347 23.0444 21.7144 23.7557L21.2082 23.9883C21.0626 24.0553 20.904 24.0901 20.7433 24.0906L0 24.1546V28.1318L10.6644 28.1102L20.8097 28.0794C21.1441 28.0784 21.4738 28.003 21.7739 27.8589L21.9237 27.7869C22.2653 27.6252 22.772 27.2587 23.0585 26.9785C23.8186 26.2348 24.1161 25.5665 24.2483 24.2947C24.4136 22.7318 24.8983 21.7833 25.9119 21.0611C26.9695 20.2959 27.2449 20.2635 32.0703 20.2635H36.3559V16.1677L32.1475 16.1785C29.8229 16.1893 27.7076 16.2324 27.4322 16.2863Z" fill="#173867"/>
<path d="M67.589 24.1438L27.5923 24.1969C27.2339 24.1975 26.881 24.2835 26.5643 24.4475L26.4847 24.4887C25.7466 24.866 25.2949 25.2432 24.8873 25.8252C24.4246 26.4827 24.2593 27.0109 24.1381 28.1857C24.05 29.0049 23.9619 29.339 23.6754 29.8564C23.2458 30.6432 22.5517 31.2899 21.7254 31.6671L21.3197 31.8552C21.1734 31.923 21.0135 31.9584 20.8516 31.9589L10.5432 31.9905L0 32.0121V36.0001L10.7085 35.9785L20.8853 35.9478C21.2418 35.9467 21.5926 35.8611 21.9078 35.6982L22.0119 35.6444C23.3559 34.9546 24.0941 33.8228 24.2483 32.2384C24.3034 31.7318 24.3915 31.1498 24.4466 30.9558C24.7441 29.9749 25.6805 28.9618 26.7492 28.4767L26.9299 28.393C27.2244 28.2565 27.5461 28.1856 27.8719 28.1854L122.288 28.1318V24.036L115.215 24.0576C111.315 24.0791 89.8873 24.1115 67.589 24.1438Z" fill="#173867"/>
<path d="M67.589 24.1438L27.5923 24.1969C27.2339 24.1975 26.881 24.2835 26.5643 24.4475L26.4847 24.4887C25.7466 24.866 25.2949 25.2432 24.8873 25.8252C24.4246 26.4827 24.2593 27.0109 24.1381 28.1857C24.05 29.0049 23.9619 29.339 23.6754 29.8564C23.2458 30.6432 22.5517 31.2899 21.7254 31.6671L21.3197 31.8552C21.1734 31.923 21.0135 31.9584 20.8516 31.9589L10.5432 31.9905L0 32.0121V36.0001L10.7085 35.9785L20.8853 35.9478C21.2418 35.9467 21.5926 35.8611 21.9078 35.6982L22.0119 35.6444C23.3559 34.9546 24.0941 33.8228 24.2483 32.2384C24.3034 31.7318 24.3915 31.1498 24.4466 30.9558C24.7441 29.9749 25.6805 28.9618 26.7492 28.4767L26.9299 28.393C27.2244 28.2565 27.5461 28.1856 27.8719 28.1854L122.288 28.1318V24.036L115.215 24.0576C111.315 24.0791 89.8873 24.1115 67.589 24.1438Z" fill="#173867"/>
<path d="M113.075 12.1798H110.891V0.389038H113.075V12.1798ZM114.055 5.73171H120.25V0.389038H122.434V12.1798H120.25V6.19228H113.829L114.055 5.73171Z" fill="#173867"/>
<path d="M96.6758 11.4427V0.388941H98.8601V9.71097C98.8601 9.82152 98.9166 9.93205 99.0296 9.93205C99.1049 9.93205 99.1803 9.87678 99.2932 9.74782L106.6 0.68371C106.882 0.333673 107.183 0.204712 107.466 0.204712C107.88 0.204712 108.219 0.517902 108.219 0.978477V12.1796H106.035V2.71024C106.035 2.5997 105.997 2.45232 105.884 2.45232C105.827 2.45232 105.733 2.48917 105.62 2.63655L98.2198 11.8296C97.8998 12.2165 97.5985 12.3823 97.3537 12.3823C96.9581 12.3823 96.6758 11.9586 96.6758 11.4427Z" fill="#173867"/>
<path fill-rule="evenodd" clip-rule="evenodd" d="M80.9199 11.715H82.0062L87.3566 0.955968C87.4883 0.661201 87.8085 0.0900879 88.2416 0.0900879C88.5429 0.0900879 88.8818 0.34801 89.2396 1.12177L94.9114 11.715H95.9283V12.1755H80.9199V11.715ZM87.6766 2.94565L92.1998 11.715H82.6277L86.9987 3.14831C87.0553 3.00092 87.2435 2.72457 87.4318 2.72457C87.526 2.72457 87.6014 2.77984 87.6766 2.94565Z" fill="#173867"/>
<path d="M69.0332 1.7704C69.0332 1.16244 69.278 0.388672 69.9183 0.388672H79.4843V0.849247H71.952C71.4436 0.849247 71.2176 1.42036 71.2176 1.91778V5.73133H77.7895V6.19192H71.2176V10.6503C71.2176 11.1477 71.4436 11.7188 71.952 11.7188H79.7103V12.1794H69.9183C69.278 12.1794 69.0332 11.4056 69.0332 10.7977V1.7704Z" fill="#173867"/>
<path d="M57.7937 11.7188H61.767C63.7253 11.7188 64.987 10.8713 64.987 8.84483C64.987 6.63406 62.5202 5.91557 60.9761 5.91557C59.9592 5.91557 58.7352 5.97084 58.1139 6.00768L58.3398 5.52869C58.98 5.49184 59.9969 5.455 60.8443 5.455C64.0643 5.455 67.5103 6.39456 67.5103 8.86325C67.5103 12.1241 63.6311 12.1794 61.5033 12.1794C61.428 12.1794 61.3527 12.1794 61.2962 12.1794H55.6094V1.7704C55.6094 1.16244 55.8542 0.388672 56.4944 0.388672H65.3636V0.849247H58.5281C58.0197 0.849247 57.7937 1.42036 57.7937 1.91778V11.7188Z" fill="#173867"/>
<path d="M54.0622 6.28408C54.0622 10.0792 50.635 12.5479 46.9442 12.5479C43.2533 12.5479 39.8262 10.0792 39.8262 6.28408C39.8262 2.48895 43.2533 0.0202637 46.9442 0.0202637C50.635 0.0202637 54.0622 2.48895 54.0622 6.28408ZM51.5388 6.28408C51.5388 3.53906 50.3714 0.480838 46.9442 0.480838C43.517 0.480838 42.3495 3.53906 42.3495 6.28408C42.3495 9.0291 43.517 12.0873 46.9442 12.0873C50.3714 12.0873 51.5388 9.0291 51.5388 6.28408Z" fill="#173867"/>
<path d="M114.991 21.6003H116.762C117.906 21.6003 118.643 21.1052 118.643 19.9215C118.643 18.63 117.224 18.2318 116.323 18.2318C115.805 18.2318 115.684 18.2426 115.442 18.264L115.552 17.9736C115.761 17.952 115.805 17.9412 116.223 17.9412C118.104 17.9412 120.117 18.4901 120.117 19.9322C120.117 21.7294 117.983 21.8693 116.509 21.8693H113.715V14.9817H114.991V21.6003ZM120.997 14.9817H122.273V21.8693H120.997V14.9817Z" fill="#173867"/>
<path d="M107.318 18.3502C107.439 18.3825 107.681 18.3825 107.912 18.3825C109.562 18.3825 110.475 17.7368 110.475 16.7251C110.475 15.5951 109.232 15.2507 108.209 15.2507H107.23C106.933 15.2507 106.801 15.5844 106.801 15.8749V21.8693H105.525V15.7889C105.525 15.4337 105.668 14.9817 106.042 14.9817H108.671C109.815 14.9817 111.949 15.3261 111.949 16.7897C111.949 18.2534 109.551 18.6515 108.11 18.6515C107.78 18.6515 107.406 18.6408 107.241 18.6085L107.318 18.3502Z" fill="#173867"/>
<path d="M97.4199 15.7889C97.4199 15.4337 97.5629 14.9817 97.9369 14.9817H103.525V15.2507H99.125C98.828 15.2507 98.696 15.5844 98.696 15.8749V18.1027H102.535V18.3717H98.696V20.9761C98.696 21.2667 98.828 21.6003 99.125 21.6003H103.657V21.8693H97.9369C97.5629 21.8693 97.4199 21.4174 97.4199 21.0622V15.7889Z" fill="#173867"/>
<path d="M89.4576 21.8693H88.1816V14.9817H89.4576V21.8693ZM90.0296 18.1027H93.6487V14.9817H94.9247V21.8693H93.6487V18.3717H89.8976L90.0296 18.1027Z" fill="#173867"/>
<path d="M82.3017 21.8693V15.2507H79.4746V14.9817H86.4047V15.2507H83.5777V21.8693H82.3017Z" fill="#173867"/>
<path d="M73.836 18.3502C73.9569 18.3825 74.199 18.3825 74.43 18.3825C76.08 18.3825 76.993 17.7368 76.993 16.7251C76.993 15.5951 75.7499 15.2507 74.727 15.2507H73.748C73.4509 15.2507 73.3189 15.5844 73.3189 15.8749V21.8693H72.043V15.7889C72.043 15.4337 72.186 14.9817 72.56 14.9817H75.189C76.333 14.9817 78.4671 15.3261 78.4671 16.7897C78.4671 18.2534 76.069 18.6515 74.628 18.6515C74.2979 18.6515 73.924 18.6408 73.759 18.6085L73.836 18.3502Z" fill="#173867"/>
<path d="M66.7918 18.458L65.7248 16.467C65.6478 16.3271 65.5928 16.2733 65.5488 16.2733C65.4828 16.2733 65.4498 16.3593 65.4168 16.4239L64.3718 18.458H66.7918ZM70.1578 21.8695H68.6069L66.9348 18.727H64.2288L62.6118 21.8695H62.2598L65.8568 15.0141C65.9448 14.8419 66.0329 14.7666 66.1208 14.7666C66.2529 14.7666 66.3738 14.9495 66.4948 15.1755L70.1578 21.8695Z" fill="#173867"/>
<path d="M54.9107 15.2507V21.8693H53.6348V14.9817H59.8608C60.2348 14.9817 60.3778 15.4337 60.3778 15.7889V21.8693H59.1018V15.8749C59.1018 15.5844 58.9698 15.2507 58.6728 15.2507H54.9107Z" fill="#173867"/>
<path d="M40.3223 21.4392V14.982H41.5982V20.4276C41.5982 20.4921 41.6313 20.5567 41.6973 20.5567C41.7412 20.5567 41.7853 20.5244 41.8513 20.4491L46.1193 15.1542C46.2843 14.9497 46.4604 14.8744 46.6253 14.8744C46.8673 14.8744 47.0653 15.0573 47.0653 15.3264V21.8697H45.7893V16.338C45.7893 16.2734 45.7673 16.1873 45.7013 16.1873C45.6684 16.1873 45.6133 16.2089 45.5473 16.295L41.2242 21.6652C41.0373 21.8912 40.8613 21.9881 40.7182 21.9881C40.4873 21.9881 40.3223 21.7405 40.3223 21.4392Z" fill="#173867"/>
<path d="M127.886 2.91019H127.441V0.431152H127.89L128.755 1.58922L129.58 0.431152H130.001V2.91019H129.559V1.1182L128.759 2.21961H128.693L127.886 1.12883V2.91019Z" fill="#173867"/>
<path d="M125.789 0.838423H124.967V0.431152H127.056V0.838423H126.234V2.91019H125.789V0.838423Z" fill="#173867"/>
<path d="M120.673 27.1619V25.8732L119.748 27.1619H119.424V25.0493H119.849V26.341L120.775 25.0493H121.098V27.1619H120.673Z" fill="#173867"/>
<path d="M118.919 25.0493V25.4477H118.336V27.1619H117.91V25.4477H117.33V25.0493H118.919Z" fill="#173867"/>
<path d="M116.029 27.2039C115.704 27.2039 115.436 27.0983 115.224 26.887C115.012 26.6758 114.906 26.4151 114.906 26.1054C114.906 25.7934 115.012 25.5329 115.224 25.3237C115.436 25.1125 115.704 25.0068 116.029 25.0068C116.225 25.0068 116.405 25.0521 116.569 25.1426C116.735 25.2311 116.865 25.3519 116.958 25.5048L116.591 25.713C116.537 25.6184 116.461 25.545 116.363 25.4927C116.264 25.4384 116.152 25.4112 116.029 25.4112C115.82 25.4112 115.65 25.4756 115.52 25.6044C115.392 25.7331 115.329 25.9002 115.329 26.1054C115.329 26.3085 115.392 26.4745 115.52 26.6033C115.65 26.732 115.82 26.7965 116.029 26.7965C116.152 26.7965 116.264 26.7703 116.363 26.718C116.463 26.6637 116.539 26.5902 116.591 26.4977L116.958 26.706C116.865 26.8588 116.736 26.9806 116.572 27.0711C116.408 27.1596 116.226 27.2039 116.029 27.2039Z" fill="#173867"/>
<path d="M114.068 26.887C113.85 27.0983 113.585 27.2039 113.272 27.2039C112.96 27.2039 112.694 27.0983 112.476 26.887C112.26 26.6737 112.152 26.4132 112.152 26.1054C112.152 25.7975 112.26 25.538 112.476 25.3267C112.694 25.1134 112.96 25.0068 113.272 25.0068C113.585 25.0068 113.85 25.1134 114.068 25.3267C114.286 25.538 114.395 25.7975 114.395 26.1054C114.395 26.4132 114.286 26.6737 114.068 26.887ZM112.776 26.6033C112.909 26.732 113.074 26.7965 113.272 26.7965C113.47 26.7965 113.635 26.732 113.769 26.6033C113.903 26.4725 113.969 26.3065 113.969 26.1054C113.969 25.9041 113.903 25.7382 113.769 25.6074C113.635 25.4766 113.47 25.4112 113.272 25.4112C113.074 25.4112 112.909 25.4766 112.776 25.6074C112.641 25.7382 112.575 25.9041 112.575 26.1054C112.575 26.3065 112.641 26.4725 112.776 26.6033Z" fill="#173867"/>
<path d="M111.177 25.0493H111.6V27.1619H111.177V26.2867H110.374V27.1619H109.949V25.0493H110.374V25.8883H111.177V25.0493Z" fill="#173867"/>
<path d="M108.808 25.0493H109.23V27.1619H108.808V26.2867H108.006V27.1619H107.58V25.0493H108.006V25.8883H108.808V25.0493Z" fill="#173867"/>
<path d="M106.078 26.7635H106.988V27.1619H105.652V25.0493H106.973V25.4477H106.078V25.8974H106.895V26.2897H106.078V26.7635Z" fill="#173867"/>
<path d="M104.863 26.0664C105.053 26.1731 105.147 26.334 105.147 26.5492C105.147 26.7284 105.082 26.8752 104.953 26.9899C104.823 27.1046 104.664 27.1619 104.475 27.1619H103.559V25.0493H104.41C104.595 25.0493 104.75 25.1057 104.876 25.2183C105.003 25.329 105.067 25.4709 105.067 25.6439C105.067 25.8189 104.999 25.9598 104.863 26.0664ZM104.41 25.4386H103.984V25.9034H104.41C104.476 25.9034 104.53 25.8813 104.573 25.837C104.619 25.7928 104.641 25.7374 104.641 25.671C104.641 25.6046 104.62 25.5493 104.577 25.505C104.533 25.4608 104.478 25.4386 104.41 25.4386ZM104.475 26.7726C104.547 26.7726 104.606 26.7495 104.654 26.7032C104.701 26.6549 104.725 26.5945 104.725 26.5221C104.725 26.4517 104.701 26.3934 104.654 26.347C104.606 26.2988 104.547 26.2746 104.475 26.2746H103.984V26.7726H104.475Z" fill="#173867"/>
<path d="M102.999 25.0493V25.4477H102.416V27.1619H101.99V25.4477H101.41V25.0493H102.999Z" fill="#173867"/>
<path d="M100.054 27.2039C99.7296 27.2039 99.4612 27.0983 99.2494 26.887C99.0375 26.6758 98.9316 26.4151 98.9316 26.1054C98.9316 25.7934 99.0375 25.5329 99.2494 25.3237C99.4612 25.1125 99.7296 25.0068 100.054 25.0068C100.25 25.0068 100.43 25.0521 100.594 25.1426C100.761 25.2311 100.89 25.3519 100.983 25.5048L100.616 25.713C100.562 25.6184 100.486 25.545 100.388 25.4927C100.289 25.4384 100.178 25.4112 100.054 25.4112C99.8447 25.4112 99.6751 25.4756 99.5455 25.6044C99.418 25.7331 99.3543 25.9002 99.3543 26.1054C99.3543 26.3085 99.418 26.4745 99.5455 26.6033C99.6751 26.732 99.8447 26.7965 100.054 26.7965C100.178 26.7965 100.289 26.7703 100.388 26.718C100.488 26.6637 100.564 26.5902 100.616 26.4977L100.983 26.706C100.89 26.8588 100.762 26.9806 100.597 27.0711C100.433 27.1596 100.252 27.2039 100.054 27.2039Z" fill="#173867"/>
<path d="M97.8306 25.8491C98.0404 25.8491 98.2121 25.9105 98.3458 26.0332C98.4794 26.1539 98.5463 26.3108 98.5463 26.504C98.5463 26.6992 98.4794 26.8582 98.3458 26.9808C98.2121 27.1015 98.0404 27.1619 97.8306 27.1619H97.0039V25.0493H98.3612V25.4477H97.4296V25.8491H97.8306ZM97.8306 26.7726C97.9149 26.7726 97.9849 26.7495 98.0404 26.7032C98.0959 26.6549 98.1237 26.5885 98.1237 26.504C98.1237 26.4195 98.0959 26.3542 98.0404 26.3078C97.9849 26.2616 97.9149 26.2384 97.8306 26.2384H97.4296V26.7726H97.8306Z" fill="#173867"/>
<path d="M96.1109 26.887C95.8929 27.0983 95.6276 27.2039 95.3151 27.2039C95.0025 27.2039 94.7372 27.0983 94.5192 26.887C94.3033 26.6737 94.1953 26.4132 94.1953 26.1054C94.1953 25.7975 94.3033 25.538 94.5192 25.3267C94.7372 25.1134 95.0025 25.0068 95.3151 25.0068C95.6276 25.0068 95.8929 25.1134 96.1109 25.3267C96.329 25.538 96.4379 25.7975 96.4379 26.1054C96.4379 26.4132 96.329 26.6737 96.1109 26.887ZM94.8184 26.6033C94.9521 26.732 95.1177 26.7965 95.3151 26.7965C95.5125 26.7965 95.6781 26.732 95.8117 26.6033C95.9454 26.4725 96.0122 26.3065 96.0122 26.1054C96.0122 25.9041 95.9454 25.7382 95.8117 25.6074C95.6781 25.4766 95.5125 25.4112 95.3151 25.4112C95.1177 25.4112 94.9521 25.4766 94.8184 25.6074C94.6848 25.7382 94.6179 25.9041 94.6179 26.1054C94.6179 26.3065 94.6848 26.4725 94.8184 26.6033Z" fill="#173867"/>
<path d="M92.8943 27.2039C92.5694 27.2039 92.3011 27.0983 92.0892 26.887C91.8774 26.6758 91.7715 26.4151 91.7715 26.1054C91.7715 25.7934 91.8774 25.5329 92.0892 25.3237C92.3011 25.1125 92.5694 25.0068 92.8943 25.0068C93.0897 25.0068 93.2697 25.0521 93.4342 25.1426C93.6007 25.2311 93.7303 25.3519 93.8228 25.5048L93.4558 25.713C93.4023 25.6184 93.3262 25.545 93.2275 25.4927C93.1288 25.4384 93.0177 25.4112 92.8943 25.4112C92.6846 25.4112 92.5149 25.4756 92.3854 25.6044C92.2579 25.7331 92.1941 25.9002 92.1941 26.1054C92.1941 26.3085 92.2579 26.4745 92.3854 26.6033C92.5149 26.732 92.6846 26.7965 92.8943 26.7965C93.0177 26.7965 93.1288 26.7703 93.2275 26.718C93.3283 26.6637 93.4043 26.5902 93.4558 26.4977L93.8228 26.706C93.7303 26.8588 93.6017 26.9806 93.4372 27.0711C93.2728 27.1596 93.0918 27.2039 92.8943 27.2039Z" fill="#173867"/>
<path d="M88.7988 24.8561V24.5181H89.6934V24.8561H88.7988ZM89.6595 27.1618V25.8731L88.7341 27.1618H88.4102V25.0492H88.8359V26.3409L89.7613 25.0492H90.0852V27.1618H89.6595Z" fill="#173867"/>
<path d="M87.5172 26.8871C87.2992 27.0984 87.0339 27.204 86.7213 27.204C86.4088 27.204 86.1435 27.0984 85.9255 26.8871C85.7095 26.6738 85.6016 26.4133 85.6016 26.1055C85.6016 25.7977 85.7095 25.5381 85.9255 25.3269C86.1435 25.1136 86.4088 25.007 86.7213 25.007C87.0339 25.007 87.2992 25.1136 87.5172 25.3269C87.7352 25.5381 87.8442 25.7977 87.8442 26.1055C87.8442 26.4133 87.7352 26.6738 87.5172 26.8871ZM86.2247 26.6035C86.3583 26.7322 86.5239 26.7966 86.7213 26.7966C86.9187 26.7966 87.0843 26.7322 87.218 26.6035C87.3516 26.4726 87.4185 26.3066 87.4185 26.1055C87.4185 25.9043 87.3516 25.7383 87.218 25.6075C87.0843 25.4767 86.9187 25.4114 86.7213 25.4114C86.5239 25.4114 86.3583 25.4767 86.2247 25.6075C86.091 25.7383 86.0242 25.9043 86.0242 26.1055C86.0242 26.3066 86.091 26.4726 86.2247 26.6035Z" fill="#173867"/>
<path d="M84.6262 25.0493H85.0488V27.1619H84.6262V26.2867H83.8241V27.1619H83.3984V25.0493H83.8241V25.8883H84.6262V25.0493Z" fill="#173867"/>
<path d="M82.0004 25.7434C82.2081 25.7434 82.3829 25.8119 82.5248 25.9487C82.6667 26.0856 82.7377 26.2535 82.7377 26.4527C82.7377 26.6519 82.6667 26.8199 82.5248 26.9567C82.3829 27.0936 82.2081 27.1619 82.0004 27.1619H81.1953V25.0493H81.621V25.7434H82.0004ZM82.0004 26.7726C82.0909 26.7726 82.166 26.7424 82.2256 26.682C82.2852 26.6217 82.3151 26.5453 82.3151 26.4527C82.3151 26.3621 82.2852 26.2867 82.2256 26.2263C82.166 26.164 82.0909 26.1328 82.0004 26.1328H81.621V26.7726H82.0004Z" fill="#173867"/>
<path d="M78.7715 27.1619V26.7756C78.899 26.7937 78.9946 26.7686 79.0584 26.7001C79.1222 26.6318 79.154 26.4979 79.154 26.2988V25.0493H80.6223V27.1619H80.1997V25.4477H79.5766V26.2867C79.5766 26.4698 79.554 26.6237 79.5087 26.7484C79.4635 26.8732 79.4008 26.9657 79.3206 27.0261C79.2425 27.0864 79.1581 27.1268 79.0676 27.1468C78.9792 27.167 78.8804 27.172 78.7715 27.1619Z" fill="#173867"/>
<path d="M77.927 27.1619L77.7975 26.7816H76.9368L76.8073 27.1619H76.3477L77.1034 25.0493H77.6309L78.3898 27.1619H77.927ZM77.0726 26.3923H77.6648L77.3687 25.5292L77.0726 26.3923Z" fill="#173867"/>
<path d="M75.798 25.0493H76.2237L75.5759 26.5794C75.4031 26.9899 75.1193 27.1841 74.7245 27.1619V26.7726C74.8396 26.7827 74.9321 26.7676 75.0021 26.7273C75.074 26.6851 75.1338 26.6177 75.181 26.5251L74.4746 25.0493H74.9003L75.3723 26.0694L75.798 25.0493Z" fill="#173867"/>
<path d="M74.0789 25.0493V25.4477H73.4959V27.1619H73.0702V25.4477H72.4902V25.0493H74.0789Z" fill="#173867"/>
<path d="M72.0858 27.1619H71.5953L70.8241 26.172V27.1619H70.3984V25.0493H70.8241V25.9819L71.5645 25.0493H72.0549L71.256 26.0754L72.0858 27.1619Z" fill="#173867"/>
<path d="M68.9511 26.7635H69.8611V27.1619H68.5254V25.0493H69.8457V25.4477H68.9511V25.8974H69.7685V26.2897H68.9511V26.7635Z" fill="#173867"/>
<path d="M65.9922 27.1619V26.7756C66.1197 26.7937 66.2153 26.7686 66.2791 26.7001C66.3429 26.6318 66.3747 26.4979 66.3747 26.2988V25.0493H67.843V27.1619H67.4204V25.4477H66.7973V26.2867C66.7973 26.4698 66.7747 26.6237 66.7294 26.7484C66.6842 26.8732 66.6215 26.9657 66.5413 27.0261C66.4632 27.0864 66.3788 27.1268 66.2883 27.1468C66.1999 27.167 66.1011 27.172 65.9922 27.1619Z" fill="#173867"/>
<path d="M63.5684 27.1619V26.7756C63.6958 26.7937 63.7915 26.7686 63.8552 26.7001C63.919 26.6318 63.9509 26.4979 63.9509 26.2988V25.0493H65.4192V27.1619H64.9966V25.4477H64.3735V26.2867C64.3735 26.4698 64.3509 26.6237 64.3056 26.7484C64.2603 26.8732 64.1976 26.9657 64.1174 27.0261C64.0393 27.0864 63.9549 27.1268 63.8645 27.1468C63.776 27.167 63.6773 27.172 63.5684 27.1619Z" fill="#173867"/>
<path d="M62.3398 26.7635H63.2498V27.1619H61.9141V25.0493H63.2343V25.4477H62.3398V25.8974H63.1572V26.2897H62.3398V26.7635Z" fill="#173867"/>
<path d="M61.2996 25.0493V25.4477H60.7166V27.1619H60.2909V25.4477H59.7109V25.0493H61.2996Z" fill="#173867"/>
<path d="M58.8469 25.0493H59.2695V27.1619H58.8469V26.2867H58.0448V27.1619H57.6191V25.0493H58.0448V25.8883H58.8469V25.0493Z" fill="#173867"/>
<path d="M56.4446 27.1619V25.8732L55.5192 27.1619H55.1953V25.0493H55.621V26.341L56.5464 25.0493H56.8703V27.1619H56.4446Z" fill="#173867"/>
<path d="M53.1946 27.1619L53.0651 26.7816H52.2044L52.0749 27.1619H51.6152L52.371 25.0493H52.8985L53.6573 27.1619H53.1946ZM52.3401 26.3923H52.9324L52.6363 25.5292L52.3401 26.3923Z" fill="#173867"/>
<path d="M51.4949 25.0493V25.4477H50.9119V27.1619H50.4862V25.4477H49.9062V25.0493H51.4949Z" fill="#173867"/>
<path d="M48.9524 27.1619V25.8732L48.027 27.1619H47.7031V25.0493H48.1288V26.341L49.0542 25.0493H49.3781V27.1619H48.9524Z" fill="#173867"/>
<path d="M46.9063 26.7635H47.1377V27.5663H46.712V27.1619H44.3984V25.0493H44.8241V26.7635H45.4411V25.0493H45.8637V26.7635H46.4806V25.0493H46.9063V26.7635Z" fill="#173867"/>
<path d="M43.4427 27.1619L43.3131 26.7816H42.4525L42.3229 27.1619H41.8633L42.619 25.0493H43.1465L43.9054 27.1619H43.4427ZM42.5882 26.3923H43.1805L42.8843 25.5292L42.5882 26.3923Z" fill="#173867"/>
<path d="M41.161 26.0693C41.3667 26.1759 41.4695 26.3428 41.4695 26.5703C41.4695 26.7593 41.3965 26.9123 41.2505 27.029C41.1045 27.1456 40.9163 27.204 40.686 27.204C40.285 27.204 40.0166 27.038 39.8809 26.7061L40.2479 26.5039C40.3137 26.7091 40.4598 26.8117 40.686 26.8117C40.8032 26.8117 40.8927 26.7876 40.9543 26.7393C41.016 26.691 41.0469 26.6256 41.0469 26.5431C41.0469 26.4605 41.016 26.3952 40.9543 26.3469C40.8947 26.2986 40.8084 26.2745 40.6952 26.2745H40.4269V25.9033H40.6305C40.7374 25.9033 40.8207 25.8811 40.8803 25.8369C40.9399 25.7906 40.9698 25.7283 40.9698 25.6498C40.9698 25.5713 40.9441 25.5099 40.8927 25.4657C40.8412 25.4193 40.7652 25.3963 40.6644 25.3963C40.4793 25.3963 40.3497 25.4848 40.2757 25.6619L39.9148 25.4566C40.0608 25.1568 40.3106 25.007 40.6644 25.007C40.8782 25.007 41.0531 25.0632 41.1888 25.176C41.3245 25.2886 41.3924 25.4374 41.3924 25.6226C41.3924 25.8117 41.3153 25.9606 41.161 26.0693Z" fill="#173867"/>
</g>
</g>
<defs>
<clipPath id="clip0_3372_6079">
<rect width="130" height="36" fill="white"/>
</clipPath>
</defs>
</svg>
